{
    "asset" : {
        "generator" : "Khronos glTF Blender I/O v1.3.48",
        "version" : "2.0"
    },
    "scene" : 0,
    "scenes" : [
        {
            "name" : "Scene",
            "nodes" : [
                0
            ]
        }
    ],
    "nodes" : [
        {
            "mesh" : 0,
            "name" : "scene",
            "rotation" : [
                -0.5050047039985657,
                0.4791695177555084,
                -0.484416127204895,
                -0.5298187136650085
            ],
            "scale" : [
                2.1513447761535645,
                2.1513447761535645,
                2.1513447761535645
            ],
            "translation" : [
                -0.09639765322208405,
                -17.038270950317383,
                2.7833564281463623
            ]
        }
    ],
    "materials" : [
        {
            "doubleSided" : true,
            "emissiveFactor" : [
                0,
                0,
                0
            ],
            "name" : "star color",
            "pbrMetallicRoughness" : {
                "baseColorFactor" : [
                    0.9117313623428345,
                    1,
                    0.1500127762556076,
                    1
                ],
                "metallicFactor" : 0,
                "roughnessFactor" : 0.5
            }
        },
        {
            "alphaMode" : "BLEND",
            "doubleSided" : true,
            "emissiveFactor" : [
                0,
                0,
                0
            ],
            "name" : "initialShadingGroup",
            "pbrMetallicRoughness" : {
                "baseColorFactor" : [
                    0.5,
                    0.5,
                    0.5,
                    1
                ],
                "metallicFactor" : 0,
                "roughnessFactor" : 1
            }
        },
        {
            "doubleSided" : true,
            "emissiveFactor" : [
                0,
                0,
                0
            ],
            "name" : "mountain color",
            "pbrMetallicRoughness" : {
                "baseColorFactor" : [
                    0.22661957144737244,
                    0.22661957144737244,
                    0.22661957144737244,
                    1
                ],
                "metallicFactor" : 0,
                "roughnessFactor" : 0.5
            }
        },
        {
            "doubleSided" : true,
            "emissiveFactor" : [
                0,
                0,
                0
            ],
            "name" : "base color",
            "pbrMetallicRoughness" : {
                "baseColorFactor" : [
                    0.12988612055778503,
                    0.12988612055778503,
                    0.12988612055778503,
                    1
                ],
                "metallicFactor" : 0,
                "roughnessFactor" : 0.5
            }
        },
        {
            "doubleSided" : true,
            "emissiveFactor" : [
                0,
                0,
                0
            ],
            "name" : "desert color",
            "pbrMetallicRoughness" : {
                "baseColorFactor" : [
                    0.752932071685791,
                    0.5616340041160583,
                    0.11580000072717667,
                    1
                ],
                "metallicFactor" : 0,
                "roughnessFactor" : 0.5
            }
        }
    ],
    "meshes" : [
        {
            "name" : "scene",
            "primitives" : [
                {
                    "attributes" : {
                        "POSITION" : 0,
                        "NORMAL" : 1,
                        "TEXCOORD_0" : 2
                    },
                    "indices" : 3,
                    "material" : 0
                },
                {
                    "attributes" : {
                        "POSITION" : 4,
                        "NORMAL" : 5,
                        "TEXCOORD_0" : 6
                    },
                    "indices" : 7,
                    "material" : 1
                },
                {
                    "attributes" : {
                        "POSITION" : 8,
                        "NORMAL" : 9,
                        "TEXCOORD_0" : 10
                    },
                    "indices" : 11,
                    "material" : 2
                },
                {
                    "attributes" : {
                        "POSITION" : 12,
                        "NORMAL" : 13,
                        "TEXCOORD_0" : 14
                    },
                    "indices" : 15,
                    "material" : 3
                },
                {
                    "attributes" : {
                        "POSITION" : 16,
                        "NORMAL" : 17,
                        "TEXCOORD_0" : 18
                    },
                    "indices" : 19,
                    "material" : 4
                }
            ]
        }
    ],
    "accessors" : [
        {
            "bufferView" : 0,
            "componentType" : 5126,
            "count" : 681,
            "max" : [
                -21.23601722717285,
                5.698662757873535,
                -12.478713989257812
            ],
            "min" : [
                -25.903512954711914,
                -7.311298370361328,
                -26.650630950927734
            ],
            "type" : "VEC3"
        },
        {
            "bufferView" : 1,
            "componentType" : 5126,
            "count" : 681,
            "type" : "VEC3"
        },
        {
            "bufferView" : 2,
            "componentType" : 5126,
            "count" : 681,
            "type" : "VEC2"
        },
        {
            "bufferView" : 3,
            "componentType" : 5123,
            "count" : 2778,
            "type" : "SCALAR"
        },
        {
            "bufferView" : 4,
            "componentType" : 5126,
            "count" : 84,
            "max" : [
                9.152228355407715,
                10.476553916931152,
                0.05929374694824219
            ],
            "min" : [
                -24.823881149291992,
                -14.200967788696289,
                -21.62464141845703
            ],
            "type" : "VEC3"
        },
        {
            "bufferView" : 5,
            "componentType" : 5126,
            "count" : 84,
            "type" : "VEC3"
        },
        {
            "bufferView" : 6,
            "componentType" : 5126,
            "count" : 84,
            "type" : "VEC2"
        },
        {
            "bufferView" : 7,
            "componentType" : 5123,
            "count" : 150,
            "type" : "SCALAR"
        },
        {
            "bufferView" : 8,
            "componentType" : 5126,
            "count" : 3072,
            "max" : [
                31.38814353942871,
                13.452441215515137,
                -1.270914077758789
            ],
            "min" : [
                -10.5297212600708,
                -15.287921905517578,
                -13.830409049987793
            ],
            "type" : "VEC3"
        },
        {
            "bufferView" : 9,
            "componentType" : 5126,
            "count" : 3072,
            "type" : "VEC3"
        },
        {
            "bufferView" : 10,
            "componentType" : 5126,
            "count" : 3072,
            "type" : "VEC2"
        },
        {
            "bufferView" : 11,
            "componentType" : 5123,
            "count" : 4608,
            "type" : "SCALAR"
        },
        {
            "bufferView" : 12,
            "componentType" : 5126,
            "count" : 612,
            "max" : [
                30.50604820251465,
                9.811565399169922,
                -1.5911293029785156
            ],
            "min" : [
                20.887882232666016,
                -15.979131698608398,
                -8.830039978027344
            ],
            "type" : "VEC3"
        },
        {
            "bufferView" : 13,
            "componentType" : 5126,
            "count" : 612,
            "type" : "VEC3"
        },
        {
            "bufferView" : 14,
            "componentType" : 5126,
            "count" : 612,
            "type" : "VEC2"
        },
        {
            "bufferView" : 15,
            "componentType" : 5123,
            "count" : 918,
            "type" : "SCALAR"
        },
        {
            "bufferView" : 16,
            "componentType" : 5126,
            "count" : 368,
            "max" : [
                -5.9059295654296875,
                10.854970932006836,
                -2.042635917663574
            ],
            "min" : [
                -26.06243896484375,
                -13.379473686218262,
                -6.294816970825195
            ],
            "type" : "VEC3"
        },
        {
            "bufferView" : 17,
            "componentType" : 5126,
            "count" : 368,
            "type" : "VEC3"
        },
        {
            "bufferView" : 18,
            "componentType" : 5126,
            "count" : 368,
            "type" : "VEC2"
        },
        {
            "bufferView" : 19,
            "componentType" : 5123,
            "count" : 552,
            "type" : "SCALAR"
        }
    ],
    "bufferViews" : [
        {
            "buffer" : 0,
            "byteLength" : 8172,
            "byteOffset" : 0
        },
        {
            "buffer" : 0,
            "byteLength" : 8172,
            "byteOffset" : 8172
        },
        {
            "buffer" : 0,
            "byteLength" : 5448,
            "byteOffset" : 16344
        },
        {
            "buffer" : 0,
            "byteLength" : 5556,
            "byteOffset" : 21792
        },
        {
            "buffer" : 0,
            "byteLength" : 1008,
            "byteOffset" : 27348
        },
        {
            "buffer" : 0,
            "byteLength" : 1008,
            "byteOffset" : 28356
        },
        {
            "buffer" : 0,
            "byteLength" : 672,
            "byteOffset" : 29364
        },
        {
            "buffer" : 0,
            "byteLength" : 300,
            "byteOffset" : 30036
        },
        {
            "buffer" : 0,
            "byteLength" : 36864,
            "byteOffset" : 30336
        },
        {
            "buffer" : 0,
            "byteLength" : 36864,
            "byteOffset" : 67200
        },
        {
            "buffer" : 0,
            "byteLength" : 24576,
            "byteOffset" : 104064
        },
        {
            "buffer" : 0,
            "byteLength" : 9216,
            "byteOffset" : 128640
        },
        {
            "buffer" : 0,
            "byteLength" : 7344,
            "byteOffset" : 137856
        },
        {
            "buffer" : 0,
            "byteLength" : 7344,
            "byteOffset" : 145200
        },
        {
            "buffer" : 0,
            "byteLength" : 4896,
            "byteOffset" : 152544
        },
        {
            "buffer" : 0,
            "byteLength" : 1836,
            "byteOffset" : 157440
        },
        {
            "buffer" : 0,
            "byteLength" : 4416,
            "byteOffset" : 159276
        },
        {
            "buffer" : 0,
            "byteLength" : 4416,
            "byteOffset" : 163692
        },
        {
            "buffer" : 0,
            "byteLength" : 2944,
            "byteOffset" : 168108
        },
        {
            "buffer" : 0,
            "byteLength" : 1104,
            "byteOffset" : 171052
        }
    ],
    "buffers" : [
        {
            "byteLength" : 172156,
            "uri" : "data:application/octet-stream;base64,"
        }
    ]
}
